<svg xmlns="http://www.w3.org/2000/svg" xmlns:xlink="http://www.w3.org/1999/xlink" x="0px" y="0px"
	 viewBox="0 0 79.9 28" style="enable-background:new 0 0 79.9 28;" xml:space="preserve">

	<polygon points="12.2,15.7 5,3.5 0,0 0,20.5 3,20.5 3,6.1 11.1,20.5 15.2,20.5 15.2,2.3 12.2,0 	"/>
	<path d="M56.9,2.2c-0.7,0.7-0.7,1.9,0,2.6c0,0,0,0,0,0c0.7,0.7,1.9,0.7,2.6,0c0.7-0.7,0.7-1.9,0-2.6C58.7,1.5,57.6,1.5,56.9,2.2z"
		/>
	<polygon points="56.7,20.5 59.6,20.5 59.6,9.8 56.7,7.5 	"/>
	<polygon points="70.7,20.5 73.6,20.5 73.6,7.5 70.7,9.8 	"/>
	<path d="M70.9,2.2c-0.7,0.7-0.7,1.9,0,2.6c0.7,0.7,1.9,0.7,2.6,0c0.7-0.7,0.7-1.9,0-2.6C72.7,1.5,71.6,1.5,70.9,2.2z"/>
	<path d="M63.2,12.7v7.8h2.9v-7.8c0-1.6,0.7-2.4,2.2-2.4h0.6V7.5h-0.7C65.3,7.5,63.2,9,63.2,12.7z"/>
	<path d="M54.5,10.3l-2.3-2.8h-2.5V4l-2.9-2.3v13.6c0,3.8,2.1,5.2,5,5.2h2.5l-1.9-2.8l-0.6,0c-1.4,0-2.1-0.8-2.1-2.4v-5H54.5z"/>
	<path d="M41.1,14.3L41.1,14.3c0,2.2-1,3.3-2.6,3.3c-1.6,0-2.6-1.1-2.6-3.3V9.6l-2.9-2.3v7c-0.1,1.7,0.4,3.3,1.5,4.6
		c1,1,2.3,1.6,3.7,1.6c1,0,2.1-0.3,2.9-0.9v2.2c0,2.2-0.9,3.5-2.7,3.5c-1.8,0-2.8-1.4-2.9-3.2h-2.9c0,1.6,0.6,3.1,1.7,4.2
		c1.1,1.1,2.6,1.7,4.2,1.6c3.3,0,5.6-2.3,5.6-6.2V9.6l-2.9-2.3V14.3z"/>
	<path d="M27.5,7.9c-1.5-0.8-3.2-1-4.9-0.5c-1.7,0.4-3.2,1.6-4.1,3.1c-0.9,1.5-1.2,3.4-0.7,5.1c0.9,3.5,4.5,5.7,8,4.8
		c0.1,0,0.1,0,0.2,0c1.5-0.4,2.8-1.3,3.8-2.6c0.3-0.5,0.6-1,0.8-1.6c0.1-0.4,0.2-0.7,0.3-0.9l-2.9,0l-0.2,0.5
		c-1,1.9-3.3,2.5-5.2,1.5c-0.6-0.3-1-0.8-1.4-1.3l9.7-2.6C30.6,12.1,30.4,9.5,27.5,7.9z M20.5,13.4c0.2-2.1,2-3.6,4.1-3.4
		c1.1,0.1,2.2,0.7,2.8,1.6L20.5,13.4z"/>
	<path d="M79.4,17.4c-0.7-0.7-1.9-0.7-2.6,0c-0.7,0.7-0.7,1.9,0,2.6c0,0,0,0,0,0c0.7,0.7,1.9,0.7,2.6,0
		C80.1,19.3,80.1,18.1,79.4,17.4z"/>
		
</svg>
